<mxfile host="65bd71144e">
    <diagram id="fzRMsPhvICNU6cuhquTa" name="Page-1">
        <mxGraphModel dx="1109" dy="630" grid="0" gridSize="10" guides="1" tooltips="1" connect="1" arrows="1" fold="1" page="1" pageScale="1" pageWidth="5000" pageHeight="5000" background="#FFFFFF" math="0" shadow="0">
            <root>
                <mxCell id="0"/>
                <mxCell id="1" parent="0"/>
                <mxCell id="3" value="Attribute" style="ellipse;whiteSpace=wrap;html=1;align=center;dashed=1;fillColor=none;strokeColor=#2800F0;" vertex="1" parent="1">
                    <mxGeometry x="1420" y="840" width="100" height="40" as="geometry"/>
                </mxCell>
            </root>
        </mxGraphModel>
    </diagram>
</mxfile>